<svg width="62" height="66" viewBox="0 0 62 66" fill="none" xmlns="http://www.w3.org/2000/svg">
<path d="M26.172 0.799988V26H23.616V5.83999L13.716 22.796H12.456L2.556 5.94799V26H0V0.799988H2.196L13.14 19.484L23.976 0.799988H26.172Z" fill="#141414"/>
<path d="M61.6159 23.8V26.104L42 26V0.799999H61.6159V3.104H44.664V12.068H58.6159V14.336H44.664V23.696L61.6159 23.8Z" fill="#141414"/>
<path d="M26.172 42.304H14.188V65.2H11.56V42.304H0V40H26.172V42.304Z" fill="#141414"/>
<path d="M51.432 40C54.648 40 57.168 40.768 58.992 42.304C60.816 43.84 61.728 45.952 61.728 48.64C61.728 51.328 60.816 53.44 58.992 54.976C57.168 56.488 54.648 57.244 51.432 57.244H44.664V65.2H42V40H51.432ZM51.36 54.904C53.856 54.904 55.764 54.364 57.084 53.284C58.404 52.18 59.064 50.632 59.064 48.64C59.064 46.6 58.404 45.04 57.084 43.96C55.764 42.856 53.856 42.304 51.36 42.304H44.664V54.904H51.36Z" fill="#141414"/>
</svg>
